<?xml version="1.0" encoding="UTF-8" ?>
<!DOCTYPE svg PUBLIC "-//W3C//DTD SVG 1.1//EN" "http://www.w3.org/Graphics/SVG/1.1/DTD/svg11.dtd">
<svg width="100pt" height="157pt" viewBox="0 0 100 157" version="1.1" xmlns="http://www.w3.org/2000/svg">
<g id="#0575ffff">
<path fill="#0575ff" opacity="1.00" d=" M 35.96 0.00 L 41.18 0.00 C 42.99 1.71 42.76 4.21 42.81 6.49 C 41.15 8.09 39.52 9.74 37.94 11.42 C 36.91 11.44 35.88 11.46 34.86 11.47 C 34.22 10.17 33.58 8.87 32.91 7.59 C 32.89 7.01 32.85 5.85 32.83 5.27 C 33.89 3.52 34.90 1.75 35.96 0.00 Z" />
<path fill="#0575ff" opacity="1.00" d=" M 47.30 12.71 C 47.77 12.70 48.72 12.67 49.19 12.65 C 49.55 13.02 50.25 13.74 50.61 14.11 C 52.07 14.40 53.54 14.70 54.99 15.07 C 56.03 15.76 57.08 16.45 58.13 17.15 C 58.82 17.20 60.20 17.29 60.88 17.34 C 62.85 19.39 65.40 20.70 68.00 21.78 C 69.69 22.69 71.37 23.61 73.03 24.58 C 74.59 23.21 76.19 21.86 78.08 20.96 C 78.95 20.15 79.81 19.34 80.66 18.52 C 84.06 18.54 87.47 18.53 90.87 18.56 C 92.90 21.00 95.15 23.30 97.96 24.85 C 97.95 24.92 97.94 25.04 97.94 25.11 C 96.68 25.74 95.79 26.77 95.13 27.98 C 92.98 31.65 90.36 35.04 87.10 37.80 C 88.84 39.55 90.23 41.59 91.49 43.70 C 91.49 44.35 91.49 45.64 91.49 46.29 C 92.72 47.73 93.90 49.22 95.01 50.77 C 95.34 51.94 95.67 53.11 95.99 54.29 C 96.48 54.30 97.45 54.32 97.94 54.33 C 97.92 60.26 97.95 66.20 97.92 72.13 C 93.44 74.14 92.89 79.51 90.50 83.27 C 88.79 87.54 84.54 89.72 81.00 92.25 C 79.04 93.29 77.04 94.25 75.05 95.25 C 72.72 96.55 70.25 97.59 67.84 98.74 C 66.32 99.62 64.78 100.46 63.27 101.37 C 61.70 101.37 60.12 101.37 58.55 101.38 C 58.55 105.29 58.61 109.21 58.43 113.13 C 57.81 114.31 57.18 115.55 57.27 116.93 C 57.17 125.31 57.32 133.69 57.27 142.07 C 57.36 143.61 56.73 145.04 56.15 146.43 C 55.64 147.89 55.13 149.36 54.57 150.80 C 54.47 151.40 54.28 152.59 54.18 153.18 C 53.51 154.45 52.87 155.72 52.23 157.00 L 48.86 157.00 C 48.57 155.24 48.21 153.48 47.42 151.87 C 47.24 149.04 47.24 146.21 47.28 143.38 C 46.87 143.06 46.05 142.41 45.64 142.09 C 45.65 129.47 45.66 116.86 45.64 104.25 C 41.89 104.28 38.15 104.29 34.41 104.31 C 34.39 103.43 34.37 102.54 34.35 101.66 C 35.11 101.06 35.87 100.47 36.63 99.88 C 38.58 99.81 40.61 99.79 42.31 98.67 C 43.14 98.61 44.80 98.50 45.64 98.44 C 45.59 82.59 45.79 66.72 45.53 50.87 C 44.37 51.45 43.20 52.04 42.05 52.64 C 40.65 52.67 39.26 52.69 37.87 52.72 C 37.53 53.10 36.84 53.85 36.50 54.23 C 34.54 54.46 32.24 53.87 30.67 55.44 C 29.68 55.50 28.69 55.57 27.70 55.63 C 27.35 56.04 26.66 56.86 26.31 57.27 C 24.73 57.25 23.14 57.23 21.56 57.22 C 21.51 56.31 21.42 54.49 21.37 53.58 C 24.02 50.97 26.64 48.33 29.26 45.70 C 29.66 45.63 30.47 45.49 30.87 45.41 C 32.88 43.44 35.41 42.19 37.85 40.84 C 41.14 39.71 44.62 39.28 47.92 38.19 C 50.17 36.90 52.54 35.76 55.12 35.36 C 56.62 34.57 58.11 33.77 59.56 32.88 C 60.18 32.74 61.42 32.47 62.04 32.33 C 56.76 28.03 52.35 22.80 47.31 18.24 C 47.29 16.40 47.29 14.56 47.30 12.71 M 70.90 41.23 C 70.41 41.30 69.42 41.44 68.93 41.51 C 68.12 42.48 67.32 43.45 66.52 44.42 C 66.11 44.39 65.30 44.32 64.89 44.29 C 64.13 46.34 61.73 45.30 60.19 45.72 C 60.17 57.15 60.15 68.59 60.20 80.03 C 60.50 84.44 58.63 88.68 60.44 92.97 C 62.05 92.40 63.63 91.76 65.22 91.13 C 66.11 89.65 67.58 88.79 69.19 88.27 C 73.95 86.47 76.91 82.22 79.36 77.99 C 82.99 73.45 80.92 67.34 81.47 62.03 C 81.15 59.66 82.47 56.35 79.88 54.94 C 79.81 52.53 79.82 50.13 79.82 47.72 C 79.38 47.19 78.50 46.13 78.06 45.59 C 76.73 45.63 75.40 45.66 74.08 45.69 C 76.03 43.51 75.80 40.67 75.44 37.97 C 74.04 39.21 72.29 39.97 70.90 41.23 Z" />
<path fill="#0575ff" opacity="1.00" d=" M 28.04 18.43 C 29.03 16.73 31.19 17.37 32.82 17.11 C 33.13 19.95 31.46 22.37 31.30 25.13 C 30.01 26.38 28.72 27.62 27.47 28.90 C 27.17 31.63 24.60 33.10 22.91 34.95 C 22.70 36.37 22.71 37.88 21.93 39.14 C 19.70 41.61 20.35 45.17 18.83 47.93 C 18.48 49.33 18.68 51.02 17.35 51.99 C 16.88 54.34 18.35 57.73 15.71 59.10 C 15.50 64.10 15.81 69.10 15.59 74.10 C 14.72 75.97 14.05 77.90 14.31 80.02 C 14.57 82.60 13.53 85.71 15.55 87.78 C 15.60 88.72 15.65 89.65 15.70 90.59 C 16.90 91.89 18.09 93.20 19.25 94.54 C 19.63 93.99 20.38 92.89 20.75 92.34 C 21.27 93.13 21.79 93.92 22.31 94.71 C 23.64 91.31 24.82 87.85 25.88 84.36 C 26.67 84.31 27.45 84.25 28.24 84.20 C 30.81 88.93 29.94 94.37 28.33 99.22 C 27.15 101.17 26.09 103.19 25.35 105.35 C 23.28 105.33 22.11 107.01 20.93 108.44 C 17.94 108.51 14.95 108.50 11.96 108.47 C 10.87 106.92 9.59 105.50 7.57 105.35 C 7.11 104.20 6.63 103.07 6.11 101.95 C 5.56 101.04 5.00 100.13 4.44 99.22 C 4.39 98.01 4.34 96.80 4.29 95.59 C 3.73 95.60 2.61 95.60 2.06 95.60 C 2.13 86.96 1.95 78.32 2.16 69.68 C 2.69 69.71 3.76 69.75 4.29 69.78 C 3.51 66.09 6.20 63.09 5.68 59.45 C 6.19 58.83 6.71 58.20 7.22 57.58 C 7.38 55.73 6.84 53.51 8.36 52.07 C 9.46 49.77 9.75 47.14 11.11 44.96 C 12.87 41.79 13.13 38.03 15.35 35.08 C 17.16 31.70 18.29 27.81 21.12 25.11 C 21.87 22.36 24.39 20.77 26.13 18.70 C 26.61 18.63 27.56 18.50 28.04 18.43 Z" />
</g>
</svg>
