<?xml version="1.0" encoding="UTF-8" ?>
<!DOCTYPE svg PUBLIC "-//W3C//DTD SVG 1.1//EN" "http://www.w3.org/Graphics/SVG/1.1/DTD/svg11.dtd">
<svg width="100pt" height="157pt" viewBox="0 0 100 157" version="1.1" xmlns="http://www.w3.org/2000/svg">
<g id="#f5e1e1ff">
<path fill="#f5e1e1" opacity="1.00" d=" M 36.46 0.00 L 40.34 0.00 C 41.22 1.19 42.83 2.28 42.57 3.95 C 42.62 7.66 38.84 10.16 35.47 10.55 C 32.31 7.38 34.70 3.21 36.46 0.00 Z" />
<path fill="#f5e1e1" opacity="1.00" d=" M 46.95 14.40 C 48.49 14.41 50.05 14.35 51.57 14.59 C 59.17 17.39 66.29 21.32 73.05 25.75 C 76.15 22.50 79.88 19.66 84.44 18.98 C 88.66 17.39 92.42 20.81 94.66 24.01 C 95.53 29.88 89.58 33.18 86.47 37.26 C 90.55 44.37 94.04 51.81 97.48 59.23 C 97.73 62.68 97.76 66.18 97.47 69.64 C 94.42 74.04 92.05 78.83 89.50 83.52 C 86.87 88.61 81.58 91.45 76.55 93.70 C 70.67 96.22 65.28 100.21 58.74 100.83 C 57.04 104.96 57.86 109.49 57.20 113.80 C 55.55 123.14 57.08 132.68 56.11 142.07 C 55.69 147.33 53.59 152.23 51.49 157.00 L 49.83 157.00 C 49.16 154.56 48.35 152.16 47.83 149.68 C 46.25 134.27 46.23 118.74 46.51 103.26 C 42.64 103.42 38.76 103.38 34.89 103.54 C 35.08 103.01 35.48 101.97 35.68 101.45 C 39.22 100.31 43.09 100.19 46.34 98.24 C 46.47 82.60 46.38 66.95 46.36 51.31 C 37.89 50.80 30.29 56.22 21.86 55.61 C 22.33 54.28 22.80 52.89 23.87 51.90 C 28.26 47.22 33.54 43.07 39.75 41.13 C 47.57 38.82 55.49 36.43 62.50 32.14 C 57.86 27.87 53.22 23.58 49.08 18.82 C 47.99 17.56 47.46 15.95 46.95 14.40 M 82.65 29.80 C 82.49 30.79 82.34 31.77 82.18 32.76 C 82.73 32.66 83.84 32.48 84.40 32.38 C 84.51 31.30 84.62 30.22 84.74 29.15 C 84.22 29.31 83.17 29.64 82.65 29.80 M 67.83 41.73 C 65.13 43.59 62.06 44.75 59.10 46.10 C 60.09 54.49 59.64 63.01 59.40 71.43 C 58.15 78.89 58.54 86.48 58.64 94.01 C 64.35 92.72 69.42 89.48 74.07 86.05 C 78.54 81.56 83.23 75.83 82.50 69.06 C 82.38 64.65 83.01 60.12 81.68 55.82 C 81.06 51.48 80.87 46.25 76.63 43.73 C 76.76 41.81 76.38 39.94 75.55 38.21 C 72.62 38.39 70.31 40.38 67.83 41.73 Z" />
<path fill="#f5e1e1" opacity="1.00" d=" M 17.32 32.27 C 20.48 26.10 24.47 18.66 31.89 17.25 C 32.31 22.36 29.16 26.48 26.03 30.13 C 20.88 36.23 19.19 44.22 16.93 51.66 C 15.01 57.25 15.70 63.24 14.72 68.99 C 15.08 73.41 13.26 77.58 13.31 81.97 C 13.10 86.51 14.95 91.02 18.07 94.29 C 19.82 94.09 22.07 95.02 23.37 93.42 C 24.69 90.89 25.31 88.07 26.26 85.40 C 26.78 85.44 27.82 85.54 28.34 85.59 C 28.66 89.93 29.34 94.55 27.44 98.65 C 26.23 101.44 25.39 104.92 22.32 106.24 C 19.26 108.20 15.43 107.65 12.01 107.32 C 5.89 104.40 5.17 97.21 2.62 91.72 C 1.89 85.99 2.18 80.15 2.38 74.38 C 5.93 67.04 6.20 58.66 9.32 51.17 C 11.84 44.80 14.12 38.33 17.32 32.27 Z" />
</g>
</svg>
